<?xml version="1.0" encoding="UTF-8"?><svg id="uuid-605ae62f-8cf7-46b4-b4c1-651af70b0f99" xmlns="http://www.w3.org/2000/svg" viewBox="0 0 32 32"><defs><style>.uuid-6c5f9fc1-01a5-4fec-aeec-64fd04439d0c{fill:#002a32;}.uuid-1ae07433-4df8-4849-8043-3056fda12fc2{fill:#dd3e39;}</style></defs><path class="uuid-6c5f9fc1-01a5-4fec-aeec-64fd04439d0c" d="M20.6,13.4l-.05,9.1c-.02,3.11-2.11,6.08-5.42,5.9-4.41-.24-5.46-3.87-6.67-4.67l2.66,.28c.85,.9,2.24,1.7,3.42,1.71,1.89,0,3.26-1.34,3.27-3.23l.05-9.1c.02-3.46,.82-6.88,4.33-8.04l-11.68-.06c-2.57-.01-4.79,1.08-4.8,3.94-.01,2.5,2.26,4.64,4.48,4.76l-.72,1.62c-3.71-.27-6.56-2.5-6.54-6.42,.02-4.39,3.75-6.48,7.78-6.46l18.4,.09-1.91,2.54c-3.83,0-6.55,3.75-6.58,8.07Z"/><path class="uuid-1ae07433-4df8-4849-8043-3056fda12fc2" d="M15.75,27.55c-3.97-.02-6.86-2.51-6.84-6.6,.02-3.8,2.68-7.31,6.67-7.29,1.9,0,4.01,.97,4,3.13,0,1.26-.73,1.91-1.77,2.18v1.76c2.66-.01,3.58-1.18,3.6-3.93,.01-3-2.59-4.86-5.83-4.88-4.97-.02-8.51,4.09-8.53,8.95-.03,5.18,3.64,8.39,8.68,8.41,1.66,0,4.86-.96,6.24-1.91v-2.06c-1.04,1.16-4.69,2.24-6.24,2.23Z"/></svg>