<?xml version="1.0" encoding="UTF-8"?><svg id="uuid-2225b2f1-d3a2-4e38-916e-c620cba6a414" xmlns="http://www.w3.org/2000/svg" viewBox="0 0 360 234"><defs><style>.uuid-ecbcbb79-ba0b-4a1a-90b5-d0cc55483b0d{fill:#002a32;}.uuid-36bd2ad0-33a9-4faa-87d0-9e9283dc57b4{fill:#dd3e39;}.uuid-ff425d05-4219-4ddc-b2bd-d41fbd4431b0{fill:#293241;}</style></defs><path class="uuid-ecbcbb79-ba0b-4a1a-90b5-d0cc55483b0d" d="M131.39,100.3l-.28,56.29c-.1,19.21-13.02,37.6-33.51,36.48-27.27-1.49-33.77-23.96-41.25-28.85l16.44,1.73c5.27,5.55,13.86,10.52,21.14,10.55,11.7,.06,20.13-8.29,20.19-19.99l.28-56.29c.11-21.41,5.07-42.56,26.74-49.74l-72.19-.38c-15.9-.08-29.61,6.7-29.7,24.36-.08,15.45,13.99,28.69,27.67,29.42l-4.46,9.99c-22.95-1.66-40.54-15.43-40.42-39.72,.13-27.15,23.16-40.06,48.1-39.94l113.75,.53-11.84,15.67c-23.66-.04-40.52,23.18-40.65,49.89Z"/><path class="uuid-36bd2ad0-33a9-4faa-87d0-9e9283dc57b4" d="M101.4,187.82c-24.55-.12-42.41-15.5-42.28-40.78,.12-23.52,16.54-45.2,41.24-45.07,11.76,.06,24.82,6,24.75,19.38-.04,7.81-4.52,11.78-10.92,13.45v10.91c16.48-.08,22.16-7.29,22.24-24.3,.09-18.52-16.02-30.07-36.01-30.17-30.72-.15-52.61,25.32-52.76,55.31-.16,32.05,22.53,51.86,53.69,52.01,10.29,.05,30.05-5.96,38.61-11.8l.06-12.75c-6.5,7.17-29.06,13.86-38.62,13.81Z"/><g><path class="uuid-ff425d05-4219-4ddc-b2bd-d41fbd4431b0" d="M153.6,91.59h14.26c6.18,0,10.95,.73,14.7,3.16,3.6,2.35,6.18,6.18,6.18,11.47,0,4.85-2.21,8.82-5.59,11.25-2.43,1.76-5.29,2.65-8.6,3.16l17.79,24.19h-5.44l-17.35-23.82h-11.47v23.82h-4.48v-53.23Zm15.66,25.58c5.51,0,9.04-.96,11.62-3.09,2.28-1.91,3.38-4.48,3.38-7.65,0-3.9-1.69-6.54-4.34-8.31-2.87-1.91-6.4-2.43-12.35-2.43h-9.48v21.47h11.17Z"/><path class="uuid-ff425d05-4219-4ddc-b2bd-d41fbd4431b0" d="M210.5,91.59h4.48v53.23h-4.48v-53.23Z"/><path class="uuid-ff425d05-4219-4ddc-b2bd-d41fbd4431b0" d="M252.99,91.59h4.26l22.28,53.23h-4.85l-6.54-15.88h-26.1l-6.54,15.88h-4.63l22.13-53.23Zm8.09,20.07c-1.99-4.85-3.97-9.78-5.88-14.63h-.15c-1.84,4.63-3.68,9.19-5.88,14.56l-5.44,13.23h22.72l-5.37-13.16Z"/><path class="uuid-ff425d05-4219-4ddc-b2bd-d41fbd4431b0" d="M296.87,91.59h4.48v49.11h26.39v4.12h-30.88v-53.23Z"/></g><g><path class="uuid-ff425d05-4219-4ddc-b2bd-d41fbd4431b0" d="M166.46,155.76c8.57,0,15.03,6.66,15.03,15.23s-6.45,15.23-15.03,15.23-15.03-6.66-15.03-15.23,6.45-15.23,15.03-15.23Zm0,26.87c6.45,0,11.15-5.14,11.15-11.64s-4.7-11.64-11.15-11.64-11.15,5.15-11.15,11.64,4.7,11.64,11.15,11.64Z"/><path class="uuid-ff425d05-4219-4ddc-b2bd-d41fbd4431b0" d="M187.5,185.77v-29.56h3.67l12.37,16.41c1.71,2.25,3.43,4.57,5.1,6.9l.08-.04c-.04-2.57-.08-5.55-.08-8.41v-14.86h3.76v29.56h-3.67l-12.37-16.42c-1.72-2.25-3.43-4.57-5.1-6.9l-.08,.04c.04,2.57,.08,5.55,.08,8.41v14.86h-3.76Z"/><path class="uuid-ff425d05-4219-4ddc-b2bd-d41fbd4431b0" d="M220.09,185.77v-29.56h3.67l12.37,16.41c1.71,2.25,3.43,4.57,5.1,6.9l.08-.04c-.04-2.57-.08-5.55-.08-8.41v-14.86h3.76v29.56h-3.67l-12.37-16.42c-1.71-2.25-3.43-4.57-5.1-6.9l-.08,.04c.04,2.57,.08,5.55,.08,8.41v14.86h-3.76Z"/><path class="uuid-ff425d05-4219-4ddc-b2bd-d41fbd4431b0" d="M252.68,156.21h17.07v3.51h-13.19v8.98h11.56v3.39h-11.56v10.17h13.56v3.51h-17.44v-29.56Z"/><path class="uuid-ff425d05-4219-4ddc-b2bd-d41fbd4431b0" d="M290,155.76c3.1,0,6,.78,8.33,2.08v4.25c-2.2-1.63-5.23-2.74-8.37-2.74-6.74,0-11.47,5.06-11.47,11.64s4.74,11.64,11.8,11.64c3.27,0,6.17-1.1,8.49-2.98v4.29c-2.37,1.51-5.59,2.29-8.7,2.29-8.98,0-15.48-6.49-15.48-15.15s6.12-15.31,15.39-15.31Z"/><path class="uuid-ff425d05-4219-4ddc-b2bd-d41fbd4431b0" d="M314.18,159.72h-9.92v-3.51h23.72v3.51h-9.92v26.05h-3.88v-26.05Z"/></g></svg>